<svg width="34" height="27" viewBox="0 0 34 27" fill="none" xmlns="http://www.w3.org/2000/svg">
<path d="M12.097 0V0.000150599C12.7275 0 13.6367 0.156672 14.7994 0.550134C15.5784 0.813831 16.3225 1.24088 17.0432 1.77434C18.4658 2.82738 19.3275 4.1807 19.6121 5.81755C19.6898 6.26462 19.6738 6.79483 19.6557 7.40565C19.651 7.57106 19.4309 8.46421 18.9418 10.0887C18.782 10.62 17.5074 13.2227 15.1369 17.9079C14.9448 18.2876 14.7411 19.0114 14.4808 20.0617C14.3215 20.705 14.2806 21.3885 14.4886 22.0868C14.8685 23.3619 15.3827 24.2883 15.9229 24.9016C15.0237 22.0077 14.8015 19.909 15.3876 18.6677C16.0665 17.2297 16.7934 16.3361 17.3948 15.8597C17.724 15.5989 18.086 15.3294 18.5285 15.1097C19.1941 14.7791 20.1775 14.6606 20.6975 14.3878C20.9964 14.2309 21.2353 14.0829 21.412 13.9413C21.7593 13.6627 22.1005 13.3589 22.3958 12.9956C23.9025 11.1421 24.6614 10.1974 24.7149 10.1974C24.7154 10.1974 24.7158 10.1974 24.7162 10.1975C24.233 8.95972 24.0637 8.17029 24.208 7.82908C24.2486 7.81202 24.2939 7.80353 24.3438 7.80353C24.5728 7.80353 24.8882 7.99861 25.3267 8.34147C25.6556 8.59864 25.9912 8.98773 26.2989 9.5577C26.4634 9.54881 26.6221 9.54445 26.7749 9.54445C27.6762 9.54445 28.3868 9.67757 28.8706 10.0022C29.8455 10.6562 30.5394 11.4414 31.0057 12.2915C31.4184 13.0435 31.4042 13.6269 30.9973 14.0976C30.8382 14.2816 30.5954 14.7244 29.833 14.7501C28.8706 14.7825 28.0623 15.0307 27.7358 15.1927C27.4093 15.3547 27.3067 15.8818 27.2863 16.0412C28.8722 15.845 30.0664 15.7468 30.8691 15.7468C31.1593 15.7468 31.3995 15.7524 31.5861 15.7853C32.874 16.0123 33.3713 16.4473 33.0814 17.0684C32.9597 17.3295 32.6247 17.4034 32.3751 17.4034C32.3622 17.4034 32.3492 17.4043 32.3364 17.4025C31.993 17.358 31.6652 17.1176 31.3525 16.6847C30.4171 16.7026 29.7924 16.7583 29.4792 16.8555C28.5533 17.1429 28.0771 18.1322 27.548 19.2071C27.4371 19.4323 27.2873 19.5395 27.1951 19.5996C27.0593 19.6883 26.8496 19.7469 26.5538 19.7564C26.0944 19.7712 25.5029 19.6079 25.1142 19.6539C24.9278 19.676 24.6879 19.7494 24.3946 19.8743C25.237 20.4028 25.8737 21.4366 26.1057 23.0111C26.2139 23.7459 25.7877 24.6803 25.028 25.7929L26.4429 25.8832C26.6992 25.7231 26.9222 25.6374 27.1116 25.6268C27.1289 25.6259 27.1461 25.6258 27.1634 25.6258C27.3392 25.6258 27.5257 25.647 27.7018 25.7374C28.3162 26.0528 28.4179 26.4884 28.0307 26.9975L16.3329 26.9975C13.7164 25.8067 12.2315 24.4622 11.7282 23.0155C11.5408 22.4765 11.3476 21.535 11.3544 20.1294C11.3593 19.1148 11.5272 17.2293 11.7698 14.469C11.8121 13.9869 11.7825 13.4137 11.7695 12.7492C11.752 11.856 11.4966 11.0207 10.9293 10.2551C10.5694 9.76949 9.90598 9.32522 8.90839 9.08437C7.53286 8.75245 6.26925 8.67404 5.15418 8.67404C4.98919 8.67404 4.8272 8.67715 4.6681 8.68307L6.18668 7.4554L0.506062 8.10629C1.96244 6.26794 3.27043 4.79855 4.49467 3.7773C5.68199 2.78702 7.07328 2.00476 8.60556 1.35001L7.38039 0.755249C9.36625 0.252402 10.7486 0.00100399 11.5274 0.00100399C11.6324 0.00100399 11.7259 0.0150598 11.8095 0.0146582C11.8986 0.0144072 11.9939 0 12.097 0Z" fill="#1E90FF"/>
</svg>
